# xmcd
# Track frame offsets:
# 150
# 30575
# 46942
# 73780
# 91932
# 112885
# 127897
# 147167
# 175792
# 193812
# 207037
# 234030
#
# Disc length: 3387 seconds
# Revision: 0
# Processed by: cddbd v1.5PL3 Copyright (c) Steve Scherf et al.
# Submitted via: VisiTrax 2.9.9.202 - For more info visit www.synapsa.com
#
DISCID=960d390c
DTITLE=Various Artist - TIME LIFE Body and Soul - Smooth and Silky Disc 2
DYEAR=1900
DGENRE=
TTITLE0=Maze - Silky Soul
TTITLE1=Patti Austin and James Ingram - Baby, Come To Me
TTITLE2=Loose Ends - Hangin' On  A String (Contemplating)
TTITLE3=Al B. Sure - Nite And Day
TTITLE4=Shirely Jones - Do You Get Enough Love
TTITLE5=George Benson - This Masquerade
TTITLE6=Al Jarreau - Mornin'
TTITLE7=Intro - Ribbon In The Sky
TTITLE8=Grover Washington Jr. and Bill Withers - Just The Two Of Us
TTITLE9=Blackbyrds - Walkin' In Rhythm
TTITLE10=Grover Washington Jr. w/Patti Labelle - The Best Is Yet To Come
TTITLE11=Najee feat. Vesta Williams - I'll Be Good To You
EXTD=
EXTT0=
EXTT1=
EXTT2=
EXTT3=
EXTT4=
EXTT5=
EXTT6=
EXTT7=
EXTT8=
EXTT9=
EXTT10=
EXTT11=
PLAYORDER=
